<mxfile host="Electron" modified="2023-11-25T16:02:04.053Z" agent="Mozilla/5.0 (X11; Linux x86_64) AppleWebKit/537.36 (KHTML, like Gecko) draw.io/22.1.2 Chrome/114.0.5735.289 Electron/25.9.4 Safari/537.36" etag="pcylP6wgFhBLqS82Nha5" version="22.1.2" type="device">
  <diagram name="Page-1" id="uNDYN5FyVjMaMciqcOJh">
    <mxGraphModel dx="735" dy="430" grid="1" gridSize="10" guides="1" tooltips="1" connect="1" arrows="1" fold="1" page="1" pageScale="1" pageWidth="850" pageHeight="1100" math="0" shadow="0">
      <root>
        <mxCell id="0" />
        <mxCell id="1" parent="0" />
        <mxCell id="1toYK6ZMQ-bKwvtiN87c-17" value="kapcsolat típusa" style="rounded=1;whiteSpace=wrap;html=1;fillColor=#D1DDFF;strokeColor=#4D4D4D;strokeWidth=2;fontFamily=Noto Sans;" vertex="1" parent="1">
          <mxGeometry x="522" y="477" width="120" height="60" as="geometry" />
        </mxCell>
        <mxCell id="1toYK6ZMQ-bKwvtiN87c-16" value="kapcsolat típusa" style="rounded=1;whiteSpace=wrap;html=1;fillColor=#D1DDFF;strokeColor=#4D4D4D;strokeWidth=2;fontFamily=Noto Sans;" vertex="1" parent="1">
          <mxGeometry x="522" y="317" width="120" height="60" as="geometry" />
        </mxCell>
        <mxCell id="1toYK6ZMQ-bKwvtiN87c-15" value="kapcsolat típusa" style="rounded=1;whiteSpace=wrap;html=1;fillColor=#D1DDFF;strokeColor=#4D4D4D;strokeWidth=2;fontFamily=Noto Sans;" vertex="1" parent="1">
          <mxGeometry x="522" y="397" width="120" height="60" as="geometry" />
        </mxCell>
        <mxCell id="1toYK6ZMQ-bKwvtiN87c-6" value="" style="edgeStyle=orthogonalEdgeStyle;rounded=0;orthogonalLoop=1;jettySize=auto;html=1;entryX=0;entryY=0.5;entryDx=0;entryDy=0;strokeColor=#4D4D4D;strokeWidth=2;fontFamily=Noto Sans;" edge="1" parent="1" source="1toYK6ZMQ-bKwvtiN87c-1" target="1toYK6ZMQ-bKwvtiN87c-2">
          <mxGeometry relative="1" as="geometry" />
        </mxCell>
        <mxCell id="1toYK6ZMQ-bKwvtiN87c-1" value="OpenAI API" style="rounded=1;whiteSpace=wrap;html=1;fillColor=#A7E8E4;strokeColor=#4D4D4D;strokeWidth=2;fontFamily=Noto Sans;" vertex="1" parent="1">
          <mxGeometry x="280" y="400" width="120" height="60" as="geometry" />
        </mxCell>
        <mxCell id="1toYK6ZMQ-bKwvtiN87c-2" value="kapcsolat típusa" style="rounded=1;whiteSpace=wrap;html=1;fillColor=#D1DDFF;strokeColor=#4D4D4D;strokeWidth=2;fontFamily=Noto Sans;" vertex="1" parent="1">
          <mxGeometry x="519" y="400" width="120" height="60" as="geometry" />
        </mxCell>
        <mxCell id="1toYK6ZMQ-bKwvtiN87c-5" value="" style="edgeStyle=orthogonalEdgeStyle;rounded=0;orthogonalLoop=1;jettySize=auto;html=1;strokeColor=#4D4D4D;strokeWidth=2;fontFamily=Noto Sans;" edge="1" parent="1" source="1toYK6ZMQ-bKwvtiN87c-3" target="1toYK6ZMQ-bKwvtiN87c-1">
          <mxGeometry relative="1" as="geometry" />
        </mxCell>
        <mxCell id="1toYK6ZMQ-bKwvtiN87c-3" value="bekezdés" style="rounded=1;whiteSpace=wrap;html=1;fillColor=#FFF3E6;strokeColor=#4D4D4D;strokeWidth=2;fontFamily=Noto Sans;" vertex="1" parent="1">
          <mxGeometry x="80" y="400" width="120" height="60" as="geometry" />
        </mxCell>
        <mxCell id="1toYK6ZMQ-bKwvtiN87c-7" value="magyarázat" style="rounded=1;whiteSpace=wrap;html=1;fillColor=#D1DDFF;strokeColor=#4D4D4D;strokeWidth=2;fontFamily=Noto Sans;" vertex="1" parent="1">
          <mxGeometry x="519" y="480" width="120" height="60" as="geometry" />
        </mxCell>
        <mxCell id="1toYK6ZMQ-bKwvtiN87c-8" value="névelem I.&lt;br&gt;&lt;br&gt;névelem II." style="rounded=1;whiteSpace=wrap;html=1;fillColor=#D1DDFF;strokeColor=#4D4D4D;strokeWidth=2;fontFamily=Noto Sans;" vertex="1" parent="1">
          <mxGeometry x="519" y="320" width="120" height="60" as="geometry" />
        </mxCell>
        <mxCell id="1toYK6ZMQ-bKwvtiN87c-9" value="" style="curved=1;endArrow=classic;html=1;rounded=0;entryX=0;entryY=0.5;entryDx=0;entryDy=0;strokeColor=#4D4D4D;strokeWidth=2;fontFamily=Noto Sans;" edge="1" parent="1" target="1toYK6ZMQ-bKwvtiN87c-8">
          <mxGeometry width="50" height="50" relative="1" as="geometry">
            <mxPoint x="400" y="430" as="sourcePoint" />
            <mxPoint x="450" y="380" as="targetPoint" />
            <Array as="points">
              <mxPoint x="440" y="430" />
              <mxPoint x="460" y="430" />
              <mxPoint x="460" y="410" />
              <mxPoint x="460" y="370" />
              <mxPoint x="460" y="350" />
              <mxPoint x="480" y="350" />
              <mxPoint x="500" y="350" />
            </Array>
          </mxGeometry>
        </mxCell>
        <mxCell id="1toYK6ZMQ-bKwvtiN87c-10" value="" style="curved=1;endArrow=classic;html=1;rounded=0;entryX=0;entryY=0.5;entryDx=0;entryDy=0;strokeColor=#4D4D4D;strokeWidth=2;fontFamily=Noto Sans;" edge="1" parent="1" target="1toYK6ZMQ-bKwvtiN87c-7">
          <mxGeometry width="50" height="50" relative="1" as="geometry">
            <mxPoint x="400" y="430" as="sourcePoint" />
            <mxPoint x="520" y="510" as="targetPoint" />
            <Array as="points">
              <mxPoint x="420" y="430" />
              <mxPoint x="440" y="430" />
              <mxPoint x="460" y="430" />
              <mxPoint x="460" y="450" />
              <mxPoint x="460" y="490" />
              <mxPoint x="460" y="510" />
              <mxPoint x="480" y="510" />
            </Array>
          </mxGeometry>
        </mxCell>
        <mxCell id="1toYK6ZMQ-bKwvtiN87c-11" value="" style="endArrow=none;html=1;rounded=0;entryX=1;entryY=0.5;entryDx=0;entryDy=0;exitX=0;exitY=0.5;exitDx=0;exitDy=0;strokeColor=#4D4D4D;strokeWidth=2;fontFamily=Noto Sans;" edge="1" parent="1" source="1toYK6ZMQ-bKwvtiN87c-8" target="1toYK6ZMQ-bKwvtiN87c-8">
          <mxGeometry width="50" height="50" relative="1" as="geometry">
            <mxPoint x="520" y="400" as="sourcePoint" />
            <mxPoint x="570" y="350" as="targetPoint" />
          </mxGeometry>
        </mxCell>
        <mxCell id="1toYK6ZMQ-bKwvtiN87c-12" value="few-shot prompt" style="text;strokeColor=none;fillColor=none;align=center;verticalAlign=middle;spacingLeft=4;spacingRight=4;overflow=hidden;points=[[0,0.5],[1,0.5]];portConstraint=eastwest;rotatable=0;whiteSpace=wrap;html=1;strokeWidth=2;fontFamily=Noto Sans;" vertex="1" parent="1">
          <mxGeometry x="200" y="396" width="80" height="30" as="geometry" />
        </mxCell>
      </root>
    </mxGraphModel>
  </diagram>
</mxfile>
